<svg width="136" height="79" viewBox="0 0 136 79" fill="none" xmlns="http://www.w3.org/2000/svg">
<path d="M2 77C3.60518 44.9395 25.098 -3.40891 64.9333 10.7263C73.9627 13.9303 83.1719 20.539 85.7333 30.3455C88.3212 40.2532 78.0226 41.739 70.4667 39.7843C61.7539 37.5302 57.3262 16.4906 59.9333 9.10823C62.5494 1.7006 75.6998 1.54455 81.6667 2.29883C95.5161 4.04957 107.773 11.9879 117.333 21.918C121.472 26.2164 125.568 31.5295 127.733 37.2223C129.138 40.9161 124.897 38.5547 122.4 38.1662C117.591 37.418 109.103 36.9526 119.467 36.9526C122.311 36.9526 128.45 35.6552 130.667 37.8965C131.512 38.7515 131.788 39.5807 130.4 40.3236C127.551 41.849 133.429 26.4896 134 23.6035" stroke="white" stroke-width="3" stroke-linecap="round"/>
</svg>
