<svg width="454" height="205" viewBox="0 0 454 205" fill="none" xmlns="http://www.w3.org/2000/svg">
<path d="M436.195 37.66C436.195 52.5932 471.756 68.6645 436.195 101.45C414.15 121.774 376.299 94.897 362.216 106.161C340.552 120.28 312.689 131.728 303.227 108.335C303.227 108.335 303.227 108.335 297.706 93.915C293.89 83.9473 291.136 69.0159 277.467 67.025C277.467 67.025 245.925 62.5456 264.851 50.6004C264.851 50.6004 306.408 13.3826 264.851 2.98078C218.277 -7.43564 258.744 68.7863 213.604 58.3699C182.696 47.9614 242.83 0.905506 204.883 2.98095C130.658 7.0406 126.72 9.78027 92.9079 23.8063C62.0768 36.5958 66.2439 53.6943 79.4129 67.2891C99.5795 88.1078 152.57 107.677 152.57 129.241C152.57 135.849 131.799 155.784 89.1199 142.587C75.9115 138.502 49.4006 118.728 17.8741 134.966C7.84294 138.297 -3.51101 153.703 4.97692 159.532C12.8585 164.944 28.5 166.595 34.4295 169.254C43.8997 173.5 43.8997 182 43.8997 186.256C43.8997 189.159 43.8997 192.063 43.8997 194.966C43.8997 195.805 43.8997 196.643 43.8997 197.482C43.8997 197.682 43.8997 202 43.8997 202M43.8997 202C43.8997 202 24.8838 177.899 28.5 183.324C29.5 184.824 43.8997 202 43.8997 202ZM43.8997 202C61.5 183.324 43.8997 202 61.5 183.324" stroke="white" stroke-width="3" stroke-linecap="round"/>
</svg>
