<svg width="454" height="205" viewBox="0 0 454 205" fill="none" xmlns="http://www.w3.org/2000/svg">
<path d="M2 40.1588C8.77163 47.5303 24.9436 52.4779 39.0692 48.3259C46.3079 46.1983 52.2976 42.2534 58.3107 39.1731C66.9821 34.7309 76.0069 30.5852 85.0917 26.4529C102.225 18.6599 119.683 10.6328 140.067 6.08198C150.894 3.66495 178.676 -1.69904 187.66 5.98811C194.353 11.7147 191.106 21.8363 189.545 27.8141C185.845 41.9893 178.698 55.6829 171.639 69.354C162.367 87.3115 148.916 106.944 155.146 126.149C164.098 153.743 213.882 155.291 252.846 153.56C299.328 151.496 349.741 143.561 387.3 126.43C417.16 112.811 446.325 91.3413 451.307 68.3683C457.343 40.5413 423.304 12.277 373.556 12.7941C331.775 13.2283 322.836 44.4275 331.853 63.6276C336.927 74.4302 344.25 83.335 354.865 95.4185C377.951 121.7 370.028 111.487 379.127 123.966C390.892 140.103 396.41 156.282 396.41 173.837C396.41 179.227 396.626 179.248 397.51 189.702C398.081 196.461 398.924 202 398.924 202M398.924 202C392 195.505 399.5 202.5 392 195.505C379.843 184.166 384 188 384 188L391.462 195L398.924 202ZM398.924 202L404.5 195.505L411 188" stroke="white" stroke-width="3" stroke-linecap="round"/>
</svg>
